# xmcd CD database file
#
# Track frame offsets:
#	150
#	21546
#	42560
#	59421
#	85116
#	109647
#	135528
#	156790
#	185548
#	208142
#	229971
#	251281
#	282651
#	309287
#	332533
#
# Disc length: 4750 seconds
#
# Revision: 2
# Processed by: cddbd v1.5.2PL0 Copyright (c) Steve Scherf et al.
# Submitted via: CDex 1.51
#
DISCID=d6128c0f
DTITLE=Eddie Roberts - An Introduction To 
DYEAR=2009
DGENRE=Jazz
TTITLE0=Your Eyes
TTITLE1=24000 Baci  (24 Mille Baisers)
TTITLE2=Sugar  feat. Iain Mackenzie
TTITLE3=In Search Of Something
TTITLE4=Strada Statale 163  (Sabato Triste)
TTITLE5=Giorgio's Brother  (Chillo E Nu Buono Guaglione)
TTITLE6=Roughneck
TTITLE7=In, On, Out
TTITLE8=Mr. Morgan
TTITLE9=Szabo
TTITLE10=Eazin' Down
TTITLE11=New Life
TTITLE12=Caroli
TTITLE13=Giorgio's Brother  (Lack Of Afro Remix)
TTITLE14=Every Goodbye
EXTD=YEAR: 2009
EXTT0=
EXTT1=
EXTT2=
EXTT3=
EXTT4=
EXTT5=
EXTT6=
EXTT7=
EXTT8=
EXTT9=
EXTT10=
EXTT11=
EXTT12=
EXTT13=
EXTT14=
PLAYORDER=
